<svg width="512.021" height="512.021" xmlns="http://www.w3.org/2000/svg">

 <g>
  <title>background</title>
  <rect fill="none" id="canvas_background" height="402" width="582" y="-1" x="-1"/>
 </g>
 <g>
  <title>Layer 1</title>
  <g id="svg_1">
   <path fill="#ffffff" id="svg_2" d="m301.258,256.01l201.387,-201.365c12.501,-12.501 12.501,-32.769 0,-45.269c-12.501,-12.501 -32.769,-12.501 -45.269,0l0,0l-201.366,201.386l-201.365,-201.386c-12.501,-12.501 -32.769,-12.501 -45.269,0s-12.501,32.769 0,45.269l201.386,201.365l-201.386,201.366c-12.501,12.501 -12.501,32.769 0,45.269s32.769,12.501 45.269,0l201.365,-201.387l201.365,201.387c12.501,12.501 32.769,12.501 45.269,0c12.501,-12.501 12.501,-32.769 0,-45.269l-201.386,-201.366z"/>
  </g>
 </g>
</svg>